<?xml version="1.0" standalone="no"?>
<!DOCTYPE svg PUBLIC "-//W3C//DTD SVG 20010904//EN"
 "http://www.w3.org/TR/2001/REC-SVG-20010904/DTD/svg10.dtd">
<svg version="1.0" xmlns="http://www.w3.org/2000/svg"
 width="1280.000000pt" height="1280.000000pt" viewBox="0 0 1280.000000 1280.000000"
 preserveAspectRatio="xMidYMid meet">

<g transform="translate(0.000000,1280.000000) scale(0.100000,-0.100000)"
fill="#000000" stroke="none">
<path d="M11995 10142 c-160 -56 -258 -197 -259 -372 -1 -76 3 -91 31 -148
l32 -64 -46 -41 c-26 -23 -94 -85 -152 -137 -236 -214 -621 -550 -629 -550 -4
0 -28 21 -52 46 -84 86 -169 125 -278 126 -104 1 -201 -34 -272 -98 l-39 -36
-129 114 c-70 62 -211 187 -313 277 -101 90 -216 192 -255 227 l-71 63 -12 72
c-27 168 -110 269 -266 325 -80 29 -133 30 -217 4 -110 -34 -196 -109 -245
-216 -21 -46 -28 -79 -31 -147 l-4 -87 -156 -138 c-86 -75 -201 -177 -258
-227 -410 -362 -495 -435 -510 -435 -9 0 -28 8 -42 19 -47 32 -122 51 -204 51
-63 0 -88 -5 -135 -27 -74 -35 -152 -112 -186 -186 -99 -208 -26 -413 181
-510 56 -26 82 -32 159 -35 81 -4 97 -2 147 21 115 53 203 169 226 297 10 54
9 76 -5 135 -29 125 -31 115 34 170 32 28 114 100 182 160 69 61 178 157 243
215 66 58 171 152 235 209 165 147 154 141 199 99 147 -141 351 -156 508 -38
30 22 61 54 69 70 27 52 -8 78 450 -330 115 -102 236 -208 269 -237 l61 -52 6
-113 c4 -97 9 -121 32 -166 58 -111 153 -180 280 -202 202 -36 411 108 433
298 13 116 -8 91 312 374 343 304 560 496 584 516 15 13 22 13 50 -1 64 -29
116 -39 189 -36 198 10 359 183 359 384 0 145 -89 279 -228 343 -75 34 -202
41 -277 14z m240 -167 c50 -29 100 -104 110 -167 22 -127 -100 -258 -242 -258
-137 0 -244 160 -204 305 13 49 82 121 137 141 57 21 143 12 199 -21z m-2978
-176 c61 -19 142 -135 143 -205 0 -46 -25 -121 -54 -158 -33 -44 -118 -86
-172 -86 -90 0 -169 55 -212 149 -59 128 16 267 166 307 47 12 68 11 129 -7z
m1443 -956 c65 -21 136 -89 151 -147 28 -104 -8 -207 -92 -263 -51 -34 -154
-44 -209 -21 -196 82 -184 362 17 434 50 18 71 17 133 -3z m-2962 -257 c134
-70 164 -257 56 -358 -42 -39 -95 -58 -161 -58 -134 1 -223 93 -223 230 0 94
40 158 120 195 43 19 163 14 208 -9z"/>
<path d="M3307 7945 c-129 -35 -207 -139 -207 -275 0 -123 58 -217 165 -270
69 -34 216 -36 286 -4 111 52 171 144 171 265 0 117 -34 188 -120 248 -68 48
-196 63 -295 36z"/>
<path d="M6542 7943 c-62 -19 -134 -78 -164 -137 -29 -57 -36 -176 -14 -243
23 -68 75 -126 144 -160 50 -25 68 -28 152 -28 110 0 169 21 232 82 96 93 109
272 29 385 -32 44 -102 93 -156 107 -56 15 -160 12 -223 -6z"/>
<path d="M9784 7942 c-120 -42 -176 -122 -182 -260 -6 -134 41 -222 152 -280
46 -24 61 -27 156 -27 95 0 110 3 156 27 100 52 157 147 157 258 0 188 -119
301 -317 300 -41 -1 -93 -8 -122 -18z"/>
<path d="M7335 7898 c-3 -7 -4 -566 -3 -1243 l3 -1230 285 -5 c157 -3 293 -3
303 -1 15 3 17 16 17 107 0 57 4 104 9 104 9 0 57 -68 96 -137 22 -37 95 -73
201 -99 88 -22 334 -25 414 -6 403 99 644 419 675 897 13 200 -23 397 -104
560 -123 249 -308 380 -597 425 -128 20 -351 -10 -474 -63 -56 -24 -82 -50
-144 -141 -32 -47 -62 -86 -67 -86 -5 0 -9 205 -9 465 l0 465 -300 0 c-231 0
-302 -3 -305 -12z m1119 -1059 c83 -31 149 -96 196 -193 48 -101 60 -165 60
-325 -1 -265 -73 -427 -226 -502 -156 -77 -352 -34 -448 98 -58 80 -86 184
-93 342 -13 329 69 520 250 582 73 26 191 25 261 -2z"/>
<path d="M673 7753 c-10 -4 -13 -247 -13 -1169 l0 -1165 593 4 c663 4 663 4
876 82 349 128 586 413 666 802 47 228 37 504 -26 716 -77 259 -252 472 -484
589 -166 84 -355 126 -620 138 -209 10 -971 12 -992 3z m1089 -486 c273 -64
428 -300 428 -655 0 -360 -148 -614 -404 -695 -65 -20 -91 -22 -296 -22 l-225
0 -3 689 c-2 545 0 692 10 698 22 15 415 2 490 -15z"/>
<path d="M11315 7268 c-128 -14 -232 -45 -350 -103 -217 -107 -351 -261 -430
-497 -103 -309 -55 -688 119 -931 228 -320 721 -452 1160 -311 380 122 610
454 609 879 -1 419 -175 720 -505 875 -104 48 -212 76 -352 89 -122 12 -138
12 -251 -1z m255 -425 c103 -33 182 -144 215 -303 23 -105 22 -341 0 -440 -48
-210 -162 -320 -330 -320 -80 0 -147 25 -202 74 -104 94 -146 227 -146 466 -1
210 25 316 100 422 57 79 136 117 244 118 37 0 90 -8 119 -17z"/>
<path d="M4645 7254 c-109 -24 -241 -86 -331 -158 -139 -109 -238 -266 -291
-461 -27 -95 -28 -111 -28 -315 0 -208 1 -218 29 -305 46 -149 99 -238 196
-336 135 -136 289 -208 492 -231 184 -20 370 11 492 83 24 14 59 53 97 110 33
49 64 89 69 89 13 0 13 -179 1 -286 -26 -220 -163 -329 -413 -327 -188 1 -313
64 -339 169 -9 35 -16 43 -41 48 -17 3 -145 6 -285 6 -224 0 -254 -2 -260 -16
-10 -27 27 -173 65 -252 45 -97 156 -212 256 -267 207 -115 540 -159 851 -113
357 52 607 230 714 508 62 160 63 169 68 1130 5 770 4 877 -9 888 -12 9 -85
12 -304 10 l-289 -3 -3 -107 c-1 -60 -6 -108 -10 -108 -4 0 -27 33 -51 73 -60
98 -76 114 -136 136 -133 50 -390 66 -540 35z m520 -424 c95 -46 156 -130 192
-260 28 -102 25 -341 -6 -440 -39 -130 -100 -208 -196 -252 -43 -20 -66 -23
-160 -23 -118 0 -151 10 -234 72 -44 34 -106 131 -126 198 -36 125 -37 345 -1
464 36 122 115 215 213 250 85 30 247 26 318 -9z"/>
<path d="M3115 7218 c-3 -7 -4 -413 -3 -903 l3 -890 298 -3 c163 -1 297 -1
298 0 0 2 3 402 6 891 4 696 3 890 -7 902 -11 13 -58 15 -302 15 -222 0 -290
-3 -293 -12z"/>
<path d="M6360 6325 l0 -905 303 2 302 3 3 889 c1 648 -1 892 -9 902 -9 11
-70 14 -305 14 l-294 0 0 -905z"/>
<path d="M9614 7218 c-5 -8 -8 -399 -6 -905 l2 -893 300 0 300 0 -2 903 -3
902 -291 3 c-226 2 -293 -1 -300 -10z"/>
<path d="M10130 4651 c0 -261 2 -291 18 -309 16 -20 36 -26 75 -23 25 2 21 26
-7 38 -32 15 -37 68 -29 322 7 236 4 261 -32 261 l-25 0 0 -289z"/>
<path d="M9303 4911 c-84 -21 -136 -81 -136 -156 0 -75 43 -117 151 -150 137
-40 172 -69 172 -139 0 -50 -18 -78 -64 -100 -87 -41 -192 -1 -225 87 -8 20
-17 27 -37 27 -24 0 -26 -2 -20 -32 9 -44 48 -92 93 -114 59 -29 186 -27 236
5 52 32 81 91 73 148 -11 83 -49 115 -186 158 -97 31 -140 66 -140 115 0 72
44 110 128 110 61 0 103 -26 126 -79 15 -32 24 -41 44 -41 21 0 23 3 17 28
-23 96 -131 157 -232 133z"/>
<path d="M11041 4882 c-13 -25 8 -56 35 -50 29 5 27 62 -3 66 -13 2 -26 -4
-32 -16z"/>
<path d="M10818 4813 c-3 -44 -5 -48 -31 -51 -37 -4 -33 -36 6 -40 l27 -3 0
-179 c0 -154 2 -181 18 -199 21 -26 85 -39 107 -21 19 16 10 30 -20 30 -47 0
-55 30 -55 207 l0 162 43 3 c29 2 42 8 42 18 0 10 -13 16 -42 18 l-43 3 0 50
c0 45 -2 49 -24 49 -23 0 -25 -5 -28 -47z"/>
<path d="M9733 4756 c-161 -75 -160 -354 2 -427 76 -35 186 -19 243 34 80 74
92 231 26 330 -31 48 -110 87 -174 87 -27 0 -66 -10 -97 -24z m150 -30 c51
-22 86 -66 99 -127 29 -139 -38 -249 -152 -249 -82 0 -142 58 -156 150 -24
155 89 277 209 226z"/>
<path d="M11329 4766 c-44 -16 -73 -35 -97 -67 -60 -78 -59 -234 2 -314 48
-63 136 -88 237 -68 53 10 123 87 139 152 48 199 -105 360 -281 297z m137 -45
c59 -27 86 -76 91 -165 4 -60 1 -78 -19 -116 -33 -65 -80 -93 -144 -88 -88 7
-138 62 -151 166 -14 118 59 217 162 221 11 0 38 -8 61 -18z"/>
<path d="M11832 4760 c-23 -10 -45 -26 -48 -35 -9 -24 -22 -18 -26 13 -2 19
-9 27 -23 27 -19 0 -20 -7 -20 -220 0 -217 0 -220 21 -223 21 -3 22 1 26 150
5 164 11 190 62 237 33 31 107 34 148 7 39 -26 48 -70 48 -243 l0 -153 25 0
25 0 0 173 c0 202 -8 227 -80 265 -54 27 -101 28 -158 2z"/>
<path d="M12243 4761 c-47 -22 -73 -62 -73 -113 0 -62 36 -92 155 -129 85 -26
120 -69 99 -124 -9 -23 -57 -45 -99 -45 -50 0 -89 23 -109 65 -13 26 -23 35
-42 35 -22 0 -24 -3 -18 -22 24 -79 78 -117 167 -118 87 0 143 38 154 104 12
75 -29 118 -146 155 -80 25 -101 44 -101 91 0 50 28 75 87 75 45 0 52 -5 114
-82 5 -7 16 -13 24 -13 24 0 17 46 -12 81 -50 59 -124 74 -200 40z"/>
<path d="M10314 4756 c-3 -9 -4 -89 -3 -178 4 -184 15 -218 79 -250 68 -35
184 -15 212 36 12 20 12 20 18 -9 4 -24 10 -30 30 -30 l25 0 0 220 0 220 -25
0 -25 0 -5 -160 c-3 -92 -10 -169 -17 -180 -25 -44 -62 -68 -111 -73 -44 -4
-53 -1 -83 26 l-34 30 -5 179 c-5 175 -5 178 -28 181 -13 2 -24 -3 -28 -12z"/>
<path d="M11045 4758 c-3 -7 -4 -108 -3 -223 l3 -210 25 0 25 0 0 220 0 220
-23 3 c-12 2 -24 -3 -27 -10z"/>
</g>
</svg>
